/* XPM */
static char *coll_0[] = {
/* columns rows colors chars-per-pixel */
"32 32 7 1 ",
"  c #060608",
". c #514047",
"X c #AC3232",
"o c #DF7126",
"O c #847E87",
"+ c #9BADB7",
"@ c white",
/* pixels */
"................................",
"................................",
"..........      ................",
"..........      ................",
"..........  XXXX  ..............",
"..........  XXXX  ..............",
"............  OO        ........",
"............  OO        ........",
"..........  OOOO++++++++  ......",
"..........  OOOO++++++++  ......",
"........  OO++++++++++++  ......",
"........  OO++++++++++++  ......",
"........  ++++@@@@@@@@@@  ......",
"........  ++++@@@@@@@@@@  ......",
"........  ++++@@          ......",
"........  ++++@@          ......",
"........  OO++@@@@@@  @@  ......",
"........  OO++@@@@@@  @@  ......",
"........    XXXXXXXXooXX  ......",
"........    XXXXXXXXooXX  ......",
"..........  OOOOOOOOOOOO  ......",
"..........  OOOOOOOOOOOO  ......",
"........XX  OOOO      OO  ......",
"........XX  OOOO      OO  ......",
"......XXXX  OO  XX  OO  ........",
"......XXXX  OO  XX  OO  ........",
"..........    ....    ..........",
"..........    ....    ..........",
"................................",
"................................",
"................................",
"................................"
};
