/* XPM */
static char *bigger[] = {
/* columns rows colors chars-per-pixel */
"64 64 7 1 ",
"  c #060608",
". c #AC3232",
"X c #DF7126",
"o c #847E87",
"O c #9BADB7",
"+ c white",
"@ c #514047",
/* pixels */
"@@@@@@@@@@@@@@@@@@@@            @@@@@@@@@@@@@@@@@@@@@@@@@@@@@@@@",
"@@@@@@@@@@@@@@@@@@@@            @@@@@@@@@@@@@@@@@@@@@@@@@@@@@@@@",
"@@@@@@@@@@@@@@@@@@@@            @@@@@@@@@@@@@@@@@@@@@@@@@@@@@@@@",
"@@@@@@@@@@@@@@@@@@@@            @@@@@@@@@@@@@@@@@@@@@@@@@@@@@@@@",
"@@@@@@@@@@@@@@@@@@@@    ........    @@@@@@@@@@@@@@@@@@@@@@@@@@@@",
"@@@@@@@@@@@@@@@@@@@@    ........    @@@@@@@@@@@@@@@@@@@@@@@@@@@@",
"@@@@@@@@@@@@@@@@@@@@    ........    @@@@@@@@@@@@@@@@@@@@@@@@@@@@",
"@@@@@@@@@@@@@@@@@@@@    ........    @@@@@@@@@@@@@@@@@@@@@@@@@@@@",
"@@@@@@@@@@@@@@@@@@@@@@@@    oooo                @@@@@@@@@@@@@@@@",
"@@@@@@@@@@@@@@@@@@@@@@@@    oooo                @@@@@@@@@@@@@@@@",
"@@@@@@@@@@@@@@@@@@@@@@@@    oooo                @@@@@@@@@@@@@@@@",
"@@@@@@@@@@@@@@@@@@@@@@@@    oooo                @@@@@@@@@@@@@@@@",
"@@@@@@@@@@@@@@@@@@@@    ooooooooOOOOOOOOOOOOOOOO    @@@@@@@@@@@@",
"@@@@@@@@@@@@@@@@@@@@    ooooooooOOOOOOOOOOOOOOOO    @@@@@@@@@@@@",
"@@@@@@@@@@@@@@@@@@@@    ooooooooOOOOOOOOOOOOOOOO    @@@@@@@@@@@@",
"@@@@@@@@@@@@@@@@@@@@    ooooooooOOOOOOOOOOOOOOOO    @@@@@@@@@@@@",
"@@@@@@@@@@@@@@@@    ooooOOOOOOOOOOOOOOOOOOOOOOOO    @@@@@@@@@@@@",
"@@@@@@@@@@@@@@@@    ooooOOOOOOOOOOOOOOOOOOOOOOOO    @@@@@@@@@@@@",
"@@@@@@@@@@@@@@@@    ooooOOOOOOOOOOOOOOOOOOOOOOOO    @@@@@@@@@@@@",
"@@@@@@@@@@@@@@@@    ooooOOOOOOOOOOOOOOOOOOOOOOOO    @@@@@@@@@@@@",
"@@@@@@@@@@@@@@@@    OOOOOOOO++++++++++++++++++++    @@@@@@@@@@@@",
"@@@@@@@@@@@@@@@@    OOOOOOOO++++++++++++++++++++    @@@@@@@@@@@@",
"@@@@@@@@@@@@@@@@    OOOOOOOO++++++++++++++++++++    @@@@@@@@@@@@",
"@@@@@@@@@@@@@@@@    OOOOOOOO++++++++++++++++++++    @@@@@@@@@@@@",
"@@@@@@@@@@@@@@@@    OOOOOOOO++++                    @@@@@@@@@@@@",
"@@@@@@@@@@@@@@@@    OOOOOOOO++++                    @@@@@@@@@@@@",
"@@@@@@@@@@@@@@@@    OOOOOOOO++++                    @@@@@@@@@@@@",
"@@@@@@@@@@@@@@@@    OOOOOOOO++++                    @@@@@@@@@@@@",
"@@@@@@@@@@@@@@@@    ooooOOOO++++++++++++    ++++    @@@@@@@@@@@@",
"@@@@@@@@@@@@@@@@    ooooOOOO++++++++++++    ++++    @@@@@@@@@@@@",
"@@@@@@@@@@@@@@@@    ooooOOOO++++++++++++    ++++    @@@@@@@@@@@@",
"@@@@@@@@@@@@@@@@    ooooOOOO++++++++++++    ++++    @@@@@@@@@@@@",
"@@@@@@@@@@@@@@@@        oooooooo........XXXX....    @@@@@@@@@@@@",
"@@@@@@@@@@@@@@@@        oooooooo........XXXX....    @@@@@@@@@@@@",
"@@@@@@@@@@@@@@@@        oooooooo........XXXX....    @@@@@@@@@@@@",
"@@@@@@@@@@@@@@@@        oooooooo........XXXX....    @@@@@@@@@@@@",
"@@@@@@@@@@@@@@@@@@@@    ........oooooooooooooooo    @@@@@@@@@@@@",
"@@@@@@@@@@@@@@@@@@@@    ........oooooooooooooooo    @@@@@@@@@@@@",
"@@@@@@@@@@@@@@@@@@@@    ........oooooooooooooooo    @@@@@@@@@@@@",
"@@@@@@@@@@@@@@@@@@@@    ........oooooooooooooooo    @@@@@@@@@@@@",
"@@@@@@@@@@@@@@@@....    ooooooooOOOOOOOOOOOOOOOO    @@@@@@@@@@@@",
"@@@@@@@@@@@@@@@@....    ooooooooOOOOOOOOOOOOOOOO    @@@@@@@@@@@@",
"@@@@@@@@@@@@@@@@....    ooooooooOOOOOOOOOOOOOOOO    @@@@@@@@@@@@",
"@@@@@@@@@@@@@@@@....    ooooooooOOOOOOOOOOOOOOOO    @@@@@@@@@@@@",
"@@@@@@@@@@@@........    oooooooo            oooo    @@@@@@@@@@@@",
"@@@@@@@@@@@@........    oooooooo            oooo    @@@@@@@@@@@@",
"@@@@@@@@@@@@........    oooooooo            oooo    @@@@@@@@@@@@",
"@@@@@@@@@@@@........    oooooooo            oooo    @@@@@@@@@@@@",
"@@@@@@@@@@@@........    oooo    ....    oooo    @@@@@@@@@@@@@@@@",
"@@@@@@@@@@@@........    oooo    ....    oooo    @@@@@@@@@@@@@@@@",
"@@@@@@@@@@@@........    oooo    ....    oooo    @@@@@@@@@@@@@@@@",
"@@@@@@@@@@@@........    oooo    ....    oooo    @@@@@@@@@@@@@@@@",
"@@@@@@@@@@@@@@@@@@@@        @@@@@@@@        @@@@@@@@@@@@@@@@@@@@",
"@@@@@@@@@@@@@@@@@@@@        @@@@@@@@        @@@@@@@@@@@@@@@@@@@@",
"@@@@@@@@@@@@@@@@@@@@        @@@@@@@@        @@@@@@@@@@@@@@@@@@@@",
"@@@@@@@@@@@@@@@@@@@@        @@@@@@@@        @@@@@@@@@@@@@@@@@@@@",
"@@@@@@@@@@@@@@@@@@@@@@@@@@@@@@@@@@@@@@@@@@@@@@@@@@@@@@@@@@@@@@@@",
"@@@@@@@@@@@@@@@@@@@@@@@@@@@@@@@@@@@@@@@@@@@@@@@@@@@@@@@@@@@@@@@@",
"@@@@@@@@@@@@@@@@@@@@@@@@@@@@@@@@@@@@@@@@@@@@@@@@@@@@@@@@@@@@@@@@",
"@@@@@@@@@@@@@@@@@@@@@@@@@@@@@@@@@@@@@@@@@@@@@@@@@@@@@@@@@@@@@@@@",
"@@@@@@@@@@@@@@@@@@@@@@@@@@@@@@@@@@@@@@@@@@@@@@@@@@@@@@@@@@@@@@@@",
"@@@@@@@@@@@@@@@@@@@@@@@@@@@@@@@@@@@@@@@@@@@@@@@@@@@@@@@@@@@@@@@@",
"@@@@@@@@@@@@@@@@@@@@@@@@@@@@@@@@@@@@@@@@@@@@@@@@@@@@@@@@@@@@@@@@",
"@@@@@@@@@@@@@@@@@@@@@@@@@@@@@@@@@@@@@@@@@@@@@@@@@@@@@@@@@@@@@@@@"
};
