/* XPM */
static char *coll_0[] = {
/* columns rows colors chars-per-pixel */
"32 32 7 1 ",
"  c #040406",
". c #060608",
"X c #683E2C",
"o c #3A5124",
"O c #7E4C35",
"+ c #4B692F",
"@ c None",
/* pixels */
"@@@@@@@@@@@@@@@@@@@@@@@@@@@@@@@@",
"@@@@@@@@@@@@@@@@@@@@@@@@@@@@@@@@",
"@@@@@@@@@@@@@@@@@@@@@@@@@@@@@@@@",
"@@@@@@@@@@@@@@@@@@@@@@@@@@@@@@@@",
"@@@@@@@@@@@@..........@@@@@@@@@@",
"@@@@@@@@@@@@..........@@@@@@@@@@",
"@@@@@@@@@@..XXOOOOOOXX..@@@@@@@@",
"@@@@@@@@@@..XXOOOOOOXX..@@@@@@@@",
"@@@@......XXOOOOOOOOOOXX......@@",
"@@@@......XXOOOOOOOOOOXX......@@",
"@@@@..oo++++OOOOOOOOOOOO++oo..@@",
"@@@@..oo++++OOOOOOOOOOOO++oo..@@",
"@@@@@@..oo++OOoooooooooooo..@@@@",
"@@@@@@..oo++OOoooooooooooo..@@@@",
"@@@@@@..XX++XXoooooooooo..@@@@@@",
"@@@@@@..XX++XXoooooooooo..@@@@@@",
"@@@@@@..XXoooo++..++++....@@@@@@",
"@@@@@@..XXoooo++..++++....@@@@@@",
"@@@@@@..XXXXoo++++++++++..@@@@@@",
"@@@@@@..XXXXoo++++++++++..@@@@@@",
"@@@@@@@@....oo++++++++++..@@@@@@",
"@@@@@@@@....oo++++++++++..@@@@@@",
"@@@@@@@@@@..oooo......oo..@@@@@@",
"@@@@@@@@@@..oooo......oo..@@@@@@",
"@@@@@@@@@@  oo..@@..oo..@@@@@@@@",
"@@@@@@@@@@  oo..@@..oo..@@@@@@@@",
"@@@@@@@@@@....@@@@....@@@@@@@@@@",
"@@@@@@@@@@....@@@@....@@@@@@@@@@",
"@@@@@@@@@@@@@@@@@@@@@@@@@@@@@@@@",
"@@@@@@@@@@@@@@@@@@@@@@@@@@@@@@@@",
"@@@@@@@@@@@@@@@@@@@@@@@@@@@@@@@@",
"@@@@@@@@@@@@@@@@@@@@@@@@@@@@@@@@"
};
