/* XPM */
static char *coll_0[] = {
/* columns rows colors chars-per-pixel */
"32 32 6 1 ",
"  c #060608",
". c #683E2C",
"X c #3A5124",
"o c #7E4C35",
"O c #4B692F",
"+ c #514047",
/* pixels */
"++++++++++++++++++++++++++++++++",
"++++++++++++++++++++++++++++++++",
"++++++++++++          ++++++++++",
"++++++++++++          ++++++++++",
"++++++++++  ..oooooo..  ++++++++",
"++++++++++  ..oooooo..  ++++++++",
"++++      ..oooooooooo..      ++",
"++++      ..oooooooooo..      ++",
"++++  XXOOOOooooooooooooOOXX  ++",
"++++  XXOOOOooooooooooooOOXX  ++",
"++++++  XXOOooXXXXXXXXXXXX  ++++",
"++++++  XXOOooXXXXXXXXXXXX  ++++",
"++++++  ..OO..XXXXXXXXXX  ++++++",
"++++++  ..OO..XXXXXXXXXX  ++++++",
"++++++  ..XXXXOO  OOOO    ++++++",
"++++++  ..XXXXOO  OOOO    ++++++",
"++++++  ....XXOOOOOOOOOO  ++++++",
"++++++  ....XXOOOOOOOOOO  ++++++",
"++++++++  ..XXOOOOOOOOOO  ++++++",
"++++++++  ..XXOOOOOOOOOO  ++++++",
"++++++++++  XXOOOOOOOOOO  ++++++",
"++++++++++  XXOOOOOOOOOO  ++++++",
"++++++++++  XXXX      XX  ++++++",
"++++++++++  XXXX      XX  ++++++",
"++++++++++  XX  ++  XX  ++++++++",
"++++++++++  XX  ++  XX  ++++++++",
"++++++++++    ++++    ++++++++++",
"++++++++++    ++++    ++++++++++",
"++++++++++++++++++++++++++++++++",
"++++++++++++++++++++++++++++++++",
"++++++++++++++++++++++++++++++++",
"++++++++++++++++++++++++++++++++"
};
