/* XPM */
static char *bigger[] = {
/* columns rows colors chars-per-pixel */
"64 64 6 1 ",
"  c #060608",
". c #683E2C",
"X c #3A5124",
"o c #7E4C35",
"O c #4B692F",
"+ c None",
/* pixels */
"++++++++++++++++++++++++++++++++++++++++++++++++++++++++++++++++",
"++++++++++++++++++++++++++++++++++++++++++++++++++++++++++++++++",
"++++++++++++++++++++++++++++++++++++++++++++++++++++++++++++++++",
"++++++++++++++++++++++++++++++++++++++++++++++++++++++++++++++++",
"++++++++++++++++++++++++++++++++++++++++++++++++++++++++++++++++",
"++++++++++++++++++++++++++++++++++++++++++++++++++++++++++++++++",
"++++++++++++++++++++++++++++++++++++++++++++++++++++++++++++++++",
"++++++++++++++++++++++++++++++++++++++++++++++++++++++++++++++++",
"++++++++++++++++++++++++                    ++++++++++++++++++++",
"++++++++++++++++++++++++                    ++++++++++++++++++++",
"++++++++++++++++++++++++                    ++++++++++++++++++++",
"++++++++++++++++++++++++                    ++++++++++++++++++++",
"++++++++++++++++++++    ....oooooooooooo....    ++++++++++++++++",
"++++++++++++++++++++    ....oooooooooooo....    ++++++++++++++++",
"++++++++++++++++++++    ....oooooooooooo....    ++++++++++++++++",
"++++++++++++++++++++    ....oooooooooooo....    ++++++++++++++++",
"++++++++            ....oooooooooooooooooooo....            ++++",
"++++++++            ....oooooooooooooooooooo....            ++++",
"++++++++            ....oooooooooooooooooooo....            ++++",
"++++++++            ....oooooooooooooooooooo....            ++++",
"++++++++    XXXXOOOOOOOOooooooooooooooooooooooooOOOOXXXX    ++++",
"++++++++    XXXXOOOOOOOOooooooooooooooooooooooooOOOOXXXX    ++++",
"++++++++    XXXXOOOOOOOOooooooooooooooooooooooooOOOOXXXX    ++++",
"++++++++    XXXXOOOOOOOOooooooooooooooooooooooooOOOOXXXX    ++++",
"++++++++++++    XXXXOOOOooooXXXXXXXXXXXXXXXXXXXXXXXX    ++++++++",
"++++++++++++    XXXXOOOOooooXXXXXXXXXXXXXXXXXXXXXXXX    ++++++++",
"++++++++++++    XXXXOOOOooooXXXXXXXXXXXXXXXXXXXXXXXX    ++++++++",
"++++++++++++    XXXXOOOOooooXXXXXXXXXXXXXXXXXXXXXXXX    ++++++++",
"++++++++++++    ....OOOO....XXXXXXXXXXXXXXXXXXXX    ++++++++++++",
"++++++++++++    ....OOOO....XXXXXXXXXXXXXXXXXXXX    ++++++++++++",
"++++++++++++    ....OOOO....XXXXXXXXXXXXXXXXXXXX    ++++++++++++",
"++++++++++++    ....OOOO....XXXXXXXXXXXXXXXXXXXX    ++++++++++++",
"++++++++++++    ....XXXXXXXXOOOO    OOOOOOOO        ++++++++++++",
"++++++++++++    ....XXXXXXXXOOOO    OOOOOOOO        ++++++++++++",
"++++++++++++    ....XXXXXXXXOOOO    OOOOOOOO        ++++++++++++",
"++++++++++++    ....XXXXXXXXOOOO    OOOOOOOO        ++++++++++++",
"++++++++++++    ........XXXXOOOOOOOOOOOOOOOOOOOO    ++++++++++++",
"++++++++++++    ........XXXXOOOOOOOOOOOOOOOOOOOO    ++++++++++++",
"++++++++++++    ........XXXXOOOOOOOOOOOOOOOOOOOO    ++++++++++++",
"++++++++++++    ........XXXXOOOOOOOOOOOOOOOOOOOO    ++++++++++++",
"++++++++++++++++        XXXXOOOOOOOOOOOOOOOOOOOO    ++++++++++++",
"++++++++++++++++        XXXXOOOOOOOOOOOOOOOOOOOO    ++++++++++++",
"++++++++++++++++        XXXXOOOOOOOOOOOOOOOOOOOO    ++++++++++++",
"++++++++++++++++        XXXXOOOOOOOOOOOOOOOOOOOO    ++++++++++++",
"++++++++++++++++++++    XXXXXXXX            XXXX    ++++++++++++",
"++++++++++++++++++++    XXXXXXXX            XXXX    ++++++++++++",
"++++++++++++++++++++    XXXXXXXX            XXXX    ++++++++++++",
"++++++++++++++++++++    XXXXXXXX            XXXX    ++++++++++++",
"++++++++++++++++++++    XXXX    ++++    XXXX    ++++++++++++++++",
"++++++++++++++++++++    XXXX    ++++    XXXX    ++++++++++++++++",
"++++++++++++++++++++    XXXX    ++++    XXXX    ++++++++++++++++",
"++++++++++++++++++++    XXXX    ++++    XXXX    ++++++++++++++++",
"++++++++++++++++++++        ++++++++        ++++++++++++++++++++",
"++++++++++++++++++++        ++++++++        ++++++++++++++++++++",
"++++++++++++++++++++        ++++++++        ++++++++++++++++++++",
"++++++++++++++++++++        ++++++++        ++++++++++++++++++++",
"++++++++++++++++++++++++++++++++++++++++++++++++++++++++++++++++",
"++++++++++++++++++++++++++++++++++++++++++++++++++++++++++++++++",
"++++++++++++++++++++++++++++++++++++++++++++++++++++++++++++++++",
"++++++++++++++++++++++++++++++++++++++++++++++++++++++++++++++++",
"++++++++++++++++++++++++++++++++++++++++++++++++++++++++++++++++",
"++++++++++++++++++++++++++++++++++++++++++++++++++++++++++++++++",
"++++++++++++++++++++++++++++++++++++++++++++++++++++++++++++++++",
"++++++++++++++++++++++++++++++++++++++++++++++++++++++++++++++++"
};
