/* XPM */
static char *bigger[] = {
/* columns rows colors chars-per-pixel */
"64 64 8 1 ",
"  c black",
". c #663931",
"X c #8F563B",
"o c #D8D255",
"O c #E3DE82",
"+ c gray83",
"@ c white",
"# c None",
/* pixels */
"################################################################",
"################################################################",
"################################################################",
"################################################################",
"################################################################",
"################################################################",
"################################################################",
"################################################################",
"########################            ############################",
"########################            ############################",
"########################            ############################",
"########################            ############################",
"####################    XXXXXXXXXXXX    ########################",
"####################    XXXXXXXXXXXX    ########################",
"####################    XXXXXXXXXXXX    ########################",
"####################    XXXXXXXXXXXX    ########################",
"################    ....XXXXXXXXXXXX....    ####################",
"################    ....XXXXXXXXXXXX....    ####################",
"################    ....XXXXXXXXXXXX....    ####################",
"################    ....XXXXXXXXXXXX....    ####################",
"################    ++++............++++    ####################",
"################    ++++............++++    ####################",
"################    ++++............++++    ####################",
"################    ++++............++++    ####################",
"####################    ++++++++++++    ########################",
"####################    ++++++++++++    ########################",
"####################    ++++++++++++    ########################",
"####################    ++++++++++++    ########################",
"################    ++++@@@@ooooOOOO++++    ####################",
"################    ++++@@@@ooooOOOO++++    ####################",
"################    ++++@@@@ooooOOOO++++    ####################",
"################    ++++@@@@ooooOOOO++++    ####################",
"################    ++++@@@@ooooOOOO++++    ####################",
"################    ++++@@@@ooooOOOO++++    ####################",
"################    ++++@@@@ooooOOOO++++    ####################",
"################    ++++@@@@ooooOOOO++++    ####################",
"################    ++++oooooooooooo++++    ####################",
"################    ++++oooooooooooo++++    ####################",
"################    ++++oooooooooooo++++    ####################",
"################    ++++oooooooooooo++++    ####################",
"####################    ++++++++++++    ########################",
"####################    ++++++++++++    ########################",
"####################    ++++++++++++    ########################",
"####################    ++++++++++++    ########################",
"########################            ############################",
"########################            ############################",
"########################            ############################",
"########################            ############################",
"################################################################",
"################################################################",
"################################################################",
"################################################################",
"################################################################",
"################################################################",
"################################################################",
"################################################################",
"################################################################",
"################################################################",
"################################################################",
"################################################################",
"################################################################",
"################################################################",
"################################################################",
"################################################################"
};
