/* XPM */
static char *coll_0[] = {
/* columns rows colors chars-per-pixel */
"64 64 8 1 ",
"  c black",
". c #663931",
"X c #4B692F",
"o c #8F563B",
"O c #62893E",
"+ c gray83",
"@ c white",
"# c None",
/* pixels */
"################################################################",
"################################################################",
"################################################################",
"################################################################",
"################################################################",
"################################################################",
"################################################################",
"################################################################",
"########################            ############################",
"########################            ############################",
"########################            ############################",
"########################            ############################",
"####################    oooooooooooo    ########################",
"####################    oooooooooooo    ########################",
"####################    oooooooooooo    ########################",
"####################    oooooooooooo    ########################",
"################    ....oooooooooooo....    ####################",
"################    ....oooooooooooo....    ####################",
"################    ....oooooooooooo....    ####################",
"################    ....oooooooooooo....    ####################",
"################    ++++............++++    ####################",
"################    ++++............++++    ####################",
"################    ++++............++++    ####################",
"################    ++++............++++    ####################",
"####################    ++++++++++++    ########################",
"####################    ++++++++++++    ########################",
"####################    ++++++++++++    ########################",
"####################    ++++++++++++    ########################",
"################    ++++@@@@XXXXOOOO++++    ####################",
"################    ++++@@@@XXXXOOOO++++    ####################",
"################    ++++@@@@XXXXOOOO++++    ####################",
"################    ++++@@@@XXXXOOOO++++    ####################",
"################    ++++@@@@XXXXOOOO++++    ####################",
"################    ++++@@@@XXXXOOOO++++    ####################",
"################    ++++@@@@XXXXOOOO++++    ####################",
"################    ++++@@@@XXXXOOOO++++    ####################",
"################    ++++XXXXXXXXXXXX++++    ####################",
"################    ++++XXXXXXXXXXXX++++    ####################",
"################    ++++XXXXXXXXXXXX++++    ####################",
"################    ++++XXXXXXXXXXXX++++    ####################",
"####################    ++++++++++++    ########################",
"####################    ++++++++++++    ########################",
"####################    ++++++++++++    ########################",
"####################    ++++++++++++    ########################",
"########################            ############################",
"########################            ############################",
"########################            ############################",
"########################            ############################",
"################################################################",
"################################################################",
"################################################################",
"################################################################",
"################################################################",
"################################################################",
"################################################################",
"################################################################",
"################################################################",
"################################################################",
"################################################################",
"################################################################",
"################################################################",
"################################################################",
"################################################################",
"################################################################"
};
