/* XPM */
static char *bigger[] = {
/* columns rows colors chars-per-pixel */
"64 64 8 1 ",
"  c black",
". c #663931",
"X c #CC2E3E",
"o c #8F563B",
"O c #D95763",
"+ c gray83",
"@ c white",
"# c #514047",
/* pixels */
"################################################################",
"################################################################",
"################################################################",
"################################################################",
"################################################################",
"################################################################",
"################################################################",
"################################################################",
"########################            ############################",
"########################            ############################",
"########################            ############################",
"########################            ############################",
"####################    oooooooooooo    ########################",
"####################    oooooooooooo    ########################",
"####################    oooooooooooo    ########################",
"####################    oooooooooooo    ########################",
"################    ....oooooooooooo....    ####################",
"################    ....oooooooooooo....    ####################",
"################    ....oooooooooooo....    ####################",
"################    ....oooooooooooo....    ####################",
"################    ++++............++++    ####################",
"################    ++++............++++    ####################",
"################    ++++............++++    ####################",
"################    ++++............++++    ####################",
"####################    ++++++++++++    ########################",
"####################    ++++++++++++    ########################",
"####################    ++++++++++++    ########################",
"####################    ++++++++++++    ########################",
"################    ++++@@@@XXXXOOOO++++    ####################",
"################    ++++@@@@XXXXOOOO++++    ####################",
"################    ++++@@@@XXXXOOOO++++    ####################",
"################    ++++@@@@XXXXOOOO++++    ####################",
"################    ++++@@@@XXXXOOOO++++    ####################",
"################    ++++@@@@XXXXOOOO++++    ####################",
"################    ++++@@@@XXXXOOOO++++    ####################",
"################    ++++@@@@XXXXOOOO++++    ####################",
"################    ++++XXXXXXXXXXXX++++    ####################",
"################    ++++XXXXXXXXXXXX++++    ####################",
"################    ++++XXXXXXXXXXXX++++    ####################",
"################    ++++XXXXXXXXXXXX++++    ####################",
"####################    ++++++++++++    ########################",
"####################    ++++++++++++    ########################",
"####################    ++++++++++++    ########################",
"####################    ++++++++++++    ########################",
"########################            ############################",
"########################            ############################",
"########################            ############################",
"########################            ############################",
"################################################################",
"################################################################",
"################################################################",
"################################################################",
"################################################################",
"################################################################",
"################################################################",
"################################################################",
"################################################################",
"################################################################",
"################################################################",
"################################################################",
"################################################################",
"################################################################",
"################################################################",
"################################################################"
};
