/* XPM */
static char *coll_0[] = {
/* columns rows colors chars-per-pixel */
"32 32 8 1 ",
"  c black",
". c #663931",
"X c #514047",
"o c #8F563B",
"O c #D8D255",
"+ c #E3DE82",
"@ c gray83",
"# c white",
/* pixels */
"XXXXXXXXXXXXXXXXXXXXXXXXXXXXXXXX",
"XXXXXXXXXXXXXXXXXXXXXXXXXXXXXXXX",
"XXXXXXXXXXXXXXXXXXXXXXXXXXXXXXXX",
"XXXXXXXXXXXXXXXXXXXXXXXXXXXXXXXX",
"XXXXXXXXXXXX      XXXXXXXXXXXXXX",
"XXXXXXXXXXXX      XXXXXXXXXXXXXX",
"XXXXXXXXXX  oooooo  XXXXXXXXXXXX",
"XXXXXXXXXX  oooooo  XXXXXXXXXXXX",
"XXXXXXXX  ..oooooo..  XXXXXXXXXX",
"XXXXXXXX  ..oooooo..  XXXXXXXXXX",
"XXXXXXXX  @@......@@  XXXXXXXXXX",
"XXXXXXXX  @@......@@  XXXXXXXXXX",
"XXXXXXXXXX  @@@@@@  XXXXXXXXXXXX",
"XXXXXXXXXX  @@@@@@  XXXXXXXXXXXX",
"XXXXXXXX  @@##OO++@@  XXXXXXXXXX",
"XXXXXXXX  @@##OO++@@  XXXXXXXXXX",
"XXXXXXXX  @@##OO++@@  XXXXXXXXXX",
"XXXXXXXX  @@##OO++@@  XXXXXXXXXX",
"XXXXXXXX  @@OOOOOO@@  XXXXXXXXXX",
"XXXXXXXX  @@OOOOOO@@  XXXXXXXXXX",
"XXXXXXXXXX  @@@@@@  XXXXXXXXXXXX",
"XXXXXXXXXX  @@@@@@  XXXXXXXXXXXX",
"XXXXXXXXXXXX      XXXXXXXXXXXXXX",
"XXXXXXXXXXXX      XXXXXXXXXXXXXX",
"XXXXXXXXXXXXXXXXXXXXXXXXXXXXXXXX",
"XXXXXXXXXXXXXXXXXXXXXXXXXXXXXXXX",
"XXXXXXXXXXXXXXXXXXXXXXXXXXXXXXXX",
"XXXXXXXXXXXXXXXXXXXXXXXXXXXXXXXX",
"XXXXXXXXXXXXXXXXXXXXXXXXXXXXXXXX",
"XXXXXXXXXXXXXXXXXXXXXXXXXXXXXXXX",
"XXXXXXXXXXXXXXXXXXXXXXXXXXXXXXXX",
"XXXXXXXXXXXXXXXXXXXXXXXXXXXXXXXX"
};
