/* XPM */
static char *bigger[] = {
/* columns rows colors chars-per-pixel */
"32 32 8 1 ",
"  c black",
". c #663931",
"X c #514047",
"o c #CC2E3E",
"O c #8F563B",
"+ c #D95763",
"@ c gray83",
"# c white",
/* pixels */
"XXXXXXXXXXXXXXXXXXXXXXXXXXXXXXXX",
"XXXXXXXXXXXXXXXXXXXXXXXXXXXXXXXX",
"XXXXXXXXXXXXXXXXXXXXXXXXXXXXXXXX",
"XXXXXXXXXXXXXXXXXXXXXXXXXXXXXXXX",
"XXXXXXXXXXXX      XXXXXXXXXXXXXX",
"XXXXXXXXXXXX      XXXXXXXXXXXXXX",
"XXXXXXXXXX  OOOOOO  XXXXXXXXXXXX",
"XXXXXXXXXX  OOOOOO  XXXXXXXXXXXX",
"XXXXXXXX  ..OOOOOO..  XXXXXXXXXX",
"XXXXXXXX  ..OOOOOO..  XXXXXXXXXX",
"XXXXXXXX  @@......@@  XXXXXXXXXX",
"XXXXXXXX  @@......@@  XXXXXXXXXX",
"XXXXXXXXXX  @@@@@@  XXXXXXXXXXXX",
"XXXXXXXXXX  @@@@@@  XXXXXXXXXXXX",
"XXXXXXXX  @@##oo++@@  XXXXXXXXXX",
"XXXXXXXX  @@##oo++@@  XXXXXXXXXX",
"XXXXXXXX  @@##oo++@@  XXXXXXXXXX",
"XXXXXXXX  @@##oo++@@  XXXXXXXXXX",
"XXXXXXXX  @@oooooo@@  XXXXXXXXXX",
"XXXXXXXX  @@oooooo@@  XXXXXXXXXX",
"XXXXXXXXXX  @@@@@@  XXXXXXXXXXXX",
"XXXXXXXXXX  @@@@@@  XXXXXXXXXXXX",
"XXXXXXXXXXXX      XXXXXXXXXXXXXX",
"XXXXXXXXXXXX      XXXXXXXXXXXXXX",
"XXXXXXXXXXXXXXXXXXXXXXXXXXXXXXXX",
"XXXXXXXXXXXXXXXXXXXXXXXXXXXXXXXX",
"XXXXXXXXXXXXXXXXXXXXXXXXXXXXXXXX",
"XXXXXXXXXXXXXXXXXXXXXXXXXXXXXXXX",
"XXXXXXXXXXXXXXXXXXXXXXXXXXXXXXXX",
"XXXXXXXXXXXXXXXXXXXXXXXXXXXXXXXX",
"XXXXXXXXXXXXXXXXXXXXXXXXXXXXXXXX",
"XXXXXXXXXXXXXXXXXXXXXXXXXXXXXXXX"
};
