/* XPM */
static char *bigger[] = {
/* columns rows colors chars-per-pixel */
"32 32 8 1 ",
"  c black",
". c #663931",
"X c #4B692F",
"o c #514047",
"O c #8F563B",
"+ c #62893E",
"@ c gray83",
"# c white",
/* pixels */
"oooooooooooooooooooooooooooooooo",
"oooooooooooooooooooooooooooooooo",
"oooooooooooooooooooooooooooooooo",
"oooooooooooooooooooooooooooooooo",
"oooooooooooo      oooooooooooooo",
"oooooooooooo      oooooooooooooo",
"oooooooooo  OOOOOO  oooooooooooo",
"oooooooooo  OOOOOO  oooooooooooo",
"oooooooo  ..OOOOOO..  oooooooooo",
"oooooooo  ..OOOOOO..  oooooooooo",
"oooooooo  @@......@@  oooooooooo",
"oooooooo  @@......@@  oooooooooo",
"oooooooooo  @@@@@@  oooooooooooo",
"oooooooooo  @@@@@@  oooooooooooo",
"oooooooo  @@##XX++@@  oooooooooo",
"oooooooo  @@##XX++@@  oooooooooo",
"oooooooo  @@##XX++@@  oooooooooo",
"oooooooo  @@##XX++@@  oooooooooo",
"oooooooo  @@XXXXXX@@  oooooooooo",
"oooooooo  @@XXXXXX@@  oooooooooo",
"oooooooooo  @@@@@@  oooooooooooo",
"oooooooooo  @@@@@@  oooooooooooo",
"oooooooooooo      oooooooooooooo",
"oooooooooooo      oooooooooooooo",
"oooooooooooooooooooooooooooooooo",
"oooooooooooooooooooooooooooooooo",
"oooooooooooooooooooooooooooooooo",
"oooooooooooooooooooooooooooooooo",
"oooooooooooooooooooooooooooooooo",
"oooooooooooooooooooooooooooooooo",
"oooooooooooooooooooooooooooooooo",
"oooooooooooooooooooooooooooooooo"
};
