/* XPM */
static char *bigger[] = {
/* columns rows colors chars-per-pixel */
"64 64 7 1 ",
"  c #191919",
". c #4D3533",
"X c #63413D",
"o c #704844",
"O c #898989",
"+ c #A4A4A4",
"@ c #514047",
/* pixels */
"@@@@@@@@@@@@@@@@@@@@@@@@@@@@@@@@@@@@@@@@@@@@@@@@@@@@@@@@@@@@@@@@",
"@@@@@@@@@@@@@@@@@@@@@@@@@@@@@@@@@@@@@@@@@@@@@@@@@@@@@@@@@@@@@@@@",
"@@@@@@@@@@@@@@@@@@@@                    @@@@@@@@@@@@@@@@@@@@@@@@",
"@@@@@@@@@@@@@@@@@@@@                    @@@@@@@@@@@@@@@@@@@@@@@@",
"@@@@@@@@@@@@@@@@@@@@                    @@@@@@@@@@@@@@@@@@@@@@@@",
"@@@@@@@@@@@@@@@@@@@@                    @@@@@@@@@@@@@@@@@@@@@@@@",
"@@@@@@@@@@@@@@@@    OOOOOOOOOOOOOOOO++++    @@@@@@@@@@@@@@@@@@@@",
"@@@@@@@@@@@@@@@@    OOOOOOOOOOOOOOOO++++    @@@@@@@@@@@@@@@@@@@@",
"@@@@@@@@@@@@@@@@    OOOOOOOOOOOOOOOO++++    @@@@@@@@@@@@@@@@@@@@",
"@@@@@@@@@@@@@@@@    OOOOOOOOOOOOOOOO++++    @@@@@@@@@@@@@@@@@@@@",
"@@@@@@@@@@@@    OOOO....XXXXooooooooXXXX++++    @@@@@@@@@@@@@@@@",
"@@@@@@@@@@@@    OOOO....XXXXooooooooXXXX++++    @@@@@@@@@@@@@@@@",
"@@@@@@@@@@@@    OOOO....XXXXooooooooXXXX++++    @@@@@@@@@@@@@@@@",
"@@@@@@@@@@@@    OOOO....XXXXooooooooXXXX++++    @@@@@@@@@@@@@@@@",
"@@@@@@@@    OOOO....XXXXXXXXooooooooXXXXXXXX++++    @@@@@@@@@@@@",
"@@@@@@@@    OOOO....XXXXXXXXooooooooXXXXXXXX++++    @@@@@@@@@@@@",
"@@@@@@@@    OOOO....XXXXXXXXooooooooXXXXXXXX++++    @@@@@@@@@@@@",
"@@@@@@@@    OOOO....XXXXXXXXooooooooXXXXXXXX++++    @@@@@@@@@@@@",
"@@@@@@@@    OOOO....XXXXooooooooooooooooXXXX++++    @@@@@@@@@@@@",
"@@@@@@@@    OOOO....XXXXooooooooooooooooXXXX++++    @@@@@@@@@@@@",
"@@@@@@@@    OOOO....XXXXooooooooooooooooXXXX++++    @@@@@@@@@@@@",
"@@@@@@@@    OOOO....XXXXooooooooooooooooXXXX++++    @@@@@@@@@@@@",
"@@@@@@@@        OOOO....XXXXXXXXXXXXXXXX++++        @@@@@@@@@@@@",
"@@@@@@@@        OOOO....XXXXXXXXXXXXXXXX++++        @@@@@@@@@@@@",
"@@@@@@@@        OOOO....XXXXXXXXXXXXXXXX++++        @@@@@@@@@@@@",
"@@@@@@@@        OOOO....XXXXXXXXXXXXXXXX++++        @@@@@@@@@@@@",
"@@@@@@@@    ........OOOOOOOOOOOOOOOO++++XXXXXXXX    @@@@@@@@@@@@",
"@@@@@@@@    ........OOOOOOOOOOOOOOOO++++XXXXXXXX    @@@@@@@@@@@@",
"@@@@@@@@    ........OOOOOOOOOOOOOOOO++++XXXXXXXX    @@@@@@@@@@@@",
"@@@@@@@@    ........OOOOOOOOOOOOOOOO++++XXXXXXXX    @@@@@@@@@@@@",
"@@@@@@@@    OOOO....ooooooooXXXXooooooooXXXX++++    @@@@@@@@@@@@",
"@@@@@@@@    OOOO....ooooooooXXXXooooooooXXXX++++    @@@@@@@@@@@@",
"@@@@@@@@    OOOO....ooooooooXXXXooooooooXXXX++++    @@@@@@@@@@@@",
"@@@@@@@@    OOOO....ooooooooXXXXooooooooXXXX++++    @@@@@@@@@@@@",
"@@@@@@@@    ....OOOOooooooooXXXXoooooooo++++XXXX    @@@@@@@@@@@@",
"@@@@@@@@    ....OOOOooooooooXXXXoooooooo++++XXXX    @@@@@@@@@@@@",
"@@@@@@@@    ....OOOOooooooooXXXXoooooooo++++XXXX    @@@@@@@@@@@@",
"@@@@@@@@    ....OOOOooooooooXXXXoooooooo++++XXXX    @@@@@@@@@@@@",
"@@@@@@@@    ........OOOOOOOOOOOOOOOOOOOOXXXXXXXX    @@@@@@@@@@@@",
"@@@@@@@@    ........OOOOOOOOOOOOOOOOOOOOXXXXXXXX    @@@@@@@@@@@@",
"@@@@@@@@    ........OOOOOOOOOOOOOOOOOOOOXXXXXXXX    @@@@@@@@@@@@",
"@@@@@@@@    ........OOOOOOOOOOOOOOOOOOOOXXXXXXXX    @@@@@@@@@@@@",
"@@@@@@@@    ....ooooooooooooXXXXooooooooXXXXXXXX    @@@@@@@@@@@@",
"@@@@@@@@    ....ooooooooooooXXXXooooooooXXXXXXXX    @@@@@@@@@@@@",
"@@@@@@@@    ....ooooooooooooXXXXooooooooXXXXXXXX    @@@@@@@@@@@@",
"@@@@@@@@    ....ooooooooooooXXXXooooooooXXXXXXXX    @@@@@@@@@@@@",
"@@@@@@@@@@@@    ....ooooooooXXXXooooooooXXXX    @@@@@@@@@@@@@@@@",
"@@@@@@@@@@@@    ....ooooooooXXXXooooooooXXXX    @@@@@@@@@@@@@@@@",
"@@@@@@@@@@@@    ....ooooooooXXXXooooooooXXXX    @@@@@@@@@@@@@@@@",
"@@@@@@@@@@@@    ....ooooooooXXXXooooooooXXXX    @@@@@@@@@@@@@@@@",
"@@@@@@@@@@@@@@@@    XXXXXXXXXXXXXXXXXXXX    @@@@@@@@@@@@@@@@@@@@",
"@@@@@@@@@@@@@@@@    XXXXXXXXXXXXXXXXXXXX    @@@@@@@@@@@@@@@@@@@@",
"@@@@@@@@@@@@@@@@    XXXXXXXXXXXXXXXXXXXX    @@@@@@@@@@@@@@@@@@@@",
"@@@@@@@@@@@@@@@@    XXXXXXXXXXXXXXXXXXXX    @@@@@@@@@@@@@@@@@@@@",
"@@@@@@@@@@@@@@@@@@@@                    @@@@@@@@@@@@@@@@@@@@@@@@",
"@@@@@@@@@@@@@@@@@@@@                    @@@@@@@@@@@@@@@@@@@@@@@@",
"@@@@@@@@@@@@@@@@@@@@                    @@@@@@@@@@@@@@@@@@@@@@@@",
"@@@@@@@@@@@@@@@@@@@@                    @@@@@@@@@@@@@@@@@@@@@@@@",
"@@@@@@@@@@@@@@@@@@@@@@@@@@@@@@@@@@@@@@@@@@@@@@@@@@@@@@@@@@@@@@@@",
"@@@@@@@@@@@@@@@@@@@@@@@@@@@@@@@@@@@@@@@@@@@@@@@@@@@@@@@@@@@@@@@@",
"@@@@@@@@@@@@@@@@@@@@@@@@@@@@@@@@@@@@@@@@@@@@@@@@@@@@@@@@@@@@@@@@",
"@@@@@@@@@@@@@@@@@@@@@@@@@@@@@@@@@@@@@@@@@@@@@@@@@@@@@@@@@@@@@@@@",
"@@@@@@@@@@@@@@@@@@@@@@@@@@@@@@@@@@@@@@@@@@@@@@@@@@@@@@@@@@@@@@@@",
"@@@@@@@@@@@@@@@@@@@@@@@@@@@@@@@@@@@@@@@@@@@@@@@@@@@@@@@@@@@@@@@@"
};
