/* XPM */
static char *coll_0[] = {
/* columns rows colors chars-per-pixel */
"32 32 7 1 ",
"  c #191919",
". c #4D3533",
"X c #63413D",
"o c #514047",
"O c #704844",
"+ c #898989",
"@ c #A4A4A4",
/* pixels */
"oooooooooooooooooooooooooooooooo",
"oooooooooo          oooooooooooo",
"oooooooooo          oooooooooooo",
"oooooooo  ++++++++@@  oooooooooo",
"oooooooo  ++++++++@@  oooooooooo",
"oooooo  ++..XXOOOOXX@@  oooooooo",
"oooooo  ++..XXOOOOXX@@  oooooooo",
"oooo  ++..XXXXOOOOXXXX@@  oooooo",
"oooo  ++..XXXXOOOOXXXX@@  oooooo",
"oooo  ++..XXOOOOOOOOXX@@  oooooo",
"oooo  ++..XXOOOOOOOOXX@@  oooooo",
"oooo    ++..XXXXXXXX@@    oooooo",
"oooo    ++..XXXXXXXX@@    oooooo",
"oooo  ....++++++++@@XXXX  oooooo",
"oooo  ....++++++++@@XXXX  oooooo",
"oooo  ++..OOOOXXOOOOXX@@  oooooo",
"oooo  ++..OOOOXXOOOOXX@@  oooooo",
"oooo  ..++OOOOXXOOOO@@XX  oooooo",
"oooo  ..++OOOOXXOOOO@@XX  oooooo",
"oooo  ....++++++++++XXXX  oooooo",
"oooo  ....++++++++++XXXX  oooooo",
"oooo  ..OOOOOOXXOOOOXXXX  oooooo",
"oooo  ..OOOOOOXXOOOOXXXX  oooooo",
"oooooo  ..OOOOXXOOOOXX  oooooooo",
"oooooo  ..OOOOXXOOOOXX  oooooooo",
"oooooooo  XXXXXXXXXX  oooooooooo",
"oooooooo  XXXXXXXXXX  oooooooooo",
"oooooooooo          oooooooooooo",
"oooooooooo          oooooooooooo",
"oooooooooooooooooooooooooooooooo",
"oooooooooooooooooooooooooooooooo",
"oooooooooooooooooooooooooooooooo"
};
