/* XPM */
static char *bigger[] = {
/* columns rows colors chars-per-pixel */
"64 64 6 1 ",
"  c #412320",
". c #434F65",
"X c #6F7F9F",
"o c #8895AF",
"O c #A6B0C4",
"+ c None",
/* pixels */
"++++++++++++++++++++++++++++++++++++++++++++++++++++++++++++++++",
"++++++++++++++++++++++++++++++++++++++++++++++++++++++++++++++++",
"++++++++++++++++++++++++++++++++++++++++++++++++++++++++++++++++",
"++++++++++++++++++++++++++++++++++++++++++++++++++++++++++++++++",
"++++++++++++++++++++++++++++++++++++++++++++++++++++++++++++++++",
"++++++++++++++++++++++++++++++++++++++++++++++++++++++++++++++++",
"++++++++++++++++++++++++++++++++++++++++++++++++++++++++++++++++",
"++++++++++++++++++++++++++++++++++++++++++++++++++++++++++++++++",
"++++++++++++++++++++++++++oooooooooooo++++++++++++++++++++++++++",
"++++++++++++++++++++++++++oooooooooooo++++++++++++++++++++++++++",
"++++++++++++++++++++++++++oooooooooooo++++++++++++++++++++++++++",
"++++++++++++++++++++++++++oooooooooooo++++++++++++++++++++++++++",
"++++++++++++++oooooooooo..oooooooooooo..oooooooooo++++++++++++++",
"++++++++++++++oooooooooo..oooooooooooo..oooooooooo++++++++++++++",
"++++++++++++++oooooooooo..OOOOOOOOOOOO..oooooooooo++++++++++++++",
"++++++++++++++oooooooooo..OOOOOOOOOOOO..oooooooooo++++++++++++++",
"..oooooooooo..oooooooooo..XXXXXXXXXXXX..oooooooooo..oooooooooo..",
"..oooooooooo..oooooooooo..XXXXXXXXXXXX..oooooooooo..oooooooooo..",
"..oooooooooo..OOOOOOOOOO..XXXXXXXXXXXX..OOOOOOOOOO..oooooooooo..",
"..oooooooooo..OOOOOOOOOO..XXXXXXXXXXXX..OOOOOOOOOO..oooooooooo..",
"..oooooooooo..XXXXXXXXXX..XXXXXXXXXXXX..XXXXXXXXXX..oooooooooo..",
"..oooooooooo..XXXXXXXXXX..XXXXXXXXXXXX..XXXXXXXXXX..oooooooooo..",
"..OOOOOOOOOO..XXXXXXXXXX..XXXXXXXXXXXX..XXXXXXXXXX..OOOOOOOOOO..",
"..OOOOOOOOOO..XXXXXXXXXX..XXXXXXXXXXXX..XXXXXXXXXX..OOOOOOOOOO..",
"..XXXXXXXXXX..XXXXXXXXXX++++++++++++++++XXXXXXXXXX..XXXXXXXXXX..",
"..XXXXXXXXXX..XXXXXXXXXX++++++++++++++++XXXXXXXXXX..XXXXXXXXXX..",
"..XXXXXXXXXX++++++++++++++++++++++++++++++++++++++++XXXXXXXXXX..",
"..XXXXXXXXXX++++++++++++++++++++++++++++++++++++++++XXXXXXXXXX..",
"..XXXXXXXXXX++++++++++++++++++++++++++++++++++++++++XXXXXXXXXX..",
"..XXXXXXXXXX++++++++++++++++++++++++++++++++++++++++XXXXXXXXXX..",
"............++++++++++++++++++++++++++++++++++++++++............",
"............++++++++++++++++++++++++++++++++++++++++............",
"..OOOOOOOOOO++++++++++++++++++++++++++++++++++++++++OOOOOOOOOO..",
"..OOOOOOOOOO++++++++++++++++++++++++++++++++++++++++OOOOOOOOOO..",
"..XXXXXXXXXX++++++++++++++++++++++++++++++++++++++++XXXXXXXXXX..",
"..XXXXXXXXXX++++++++++++++++++++++++++++++++++++++++XXXXXXXXXX..",
"..XXXXXXXXXX++++++++++++++++++++++++++++++++++++++++XXXXXXXXXX..",
"..XXXXXXXXXX++++++++++++++++++++++++++++++++++++++++XXXXXXXXXX..",
"..XXXXXXXXXX++++++++++++++++++++++++++++++++++++++++XXXXXXXXXX..",
"..XXXXXXXXXX++++++++++++++++++++++++++++++++++++++++XXXXXXXXXX..",
"..XXXXXXXXXX++++++++++++++++++++++++++++++++++++++++XXXXXXXXXX..",
"..XXXXXXXXXX++++++++++++++++++++++++++++++++++++++++XXXXXXXXXX..",
"............++++++++++++++++++++++++++++++++++++++++............",
"............++++++++++++++++++++++++++++++++++++++++............",
"..OOOOOOOOOO++++++++++++++++++++++++++++++++++++++++OOOOOOOOOO..",
"..OOOOOOOOOO++++++++++++++++++++++++++++++++++++++++OOOOOOOOOO..",
"..XXXXXXXXXX++++++++++++++++++++++++++++++++++++++++XXXXXXXXXX..",
"..XXXXXXXXXX++++++++++++++++++++++++++++++++++++++++XXXXXXXXXX..",
"..XXXXXXXXXX++++++++++++++++++++++++++++++++++++++++XXXXXXXXXX..",
"..XXXXXXXXXX++++++++++++++++++++++++++++++++++++++++XXXXXXXXXX..",
"..XXXXXXXXXX++++++++++++++++++++++++++++++++++++++++XXXXXXXXXX..",
"..XXXXXXXXXX++++++++++++++++++++++++++++++++++++++++XXXXXXXXXX..",
"..XXXXXXXXXX++++++++++++++++++++++++++++++++++++++++XXXXXXXXXX..",
"..XXXXXXXXXX++++++++++++++++++++++++++++++++++++++++XXXXXXXXXX..",
"............++++++++++++++++++++++++++++++++++++++++............",
"............++++++++++++++++++++++++++++++++++++++++............",
"..OOOOOOOOOO++++++++++++++++++++++++++++++++++++++++OOOOOOOOOO..",
"..OOOOOOOOOO++++++++++++++++++++++++++++++++++++++++OOOOOOOOOO..",
"..XXXXXXXXXX                                        XXXXXXXXXX..",
"..XXXXXXXXXX                                        XXXXXXXXXX..",
"..XXXXXXXXXX                                        XXXXXXXXXX..",
"..XXXXXXXXXX                                        XXXXXXXXXX..",
"..XXXXXXXXXX                                        XXXXXXXXXX..",
"..XXXXXXXXXX                                        XXXXXXXXXX.."
};
