/* XPM */
static char *coll_0[] = {
/* columns rows colors chars-per-pixel */
"32 32 2 1 ",
"  c #4C3941",
". c #514047",
/* pixels */
"........    ......    ..........",
"........    ......    ..........",
"..................    ..........",
"..................    ..........",
"................................",
"................................",
"................................",
"................................",
"  ................  ............",
"  ................  ............",
"  ..............................",
"  ..............................",
"................................",
"................................",
"..........................    ..",
"..........................    ..",
"..    ....................    ..",
"..    ....................    ..",
"..    ..    ....................",
"..    ..    ....................",
"........    ....................",
"........    ....................",
"................................",
"................................",
"....    ........................",
"....    ........................",
"....    ............  ....    ..",
"....    ............  ....    ..",
"..........................    ..",
"..........................    ..",
"................................",
"................................"
};
