/* XPM */
static char *bigger[] = {
/* columns rows colors chars-per-pixel */
"64 64 4 1 ",
"  c #59413E",
". c #514047",
"X c #77514C",
"o c #8D5D57",
/* pixels */
"....XXXXXXXXXXXX................................XXXXXXXX........",
"....XXXXXXXXXXXX................................XXXXXXXX........",
"....XXXXXXXXXXXX................................XXXXXXXX........",
"....XXXXXXXXXXXX................................XXXXXXXX........",
"XXXXXXXXXXXXXXXXXXXXXXXX................XXXXXXXXXXXXXXXXoooo....",
"XXXXXXXXXXXXXXXXXXXXXXXX................XXXXXXXXXXXXXXXXoooo....",
"XXXXXXXXXXXXXXXXXXXXXXXX................XXXXXXXXXXXXXXXXoooo....",
"XXXXXXXXXXXXXXXXXXXXXXXX................XXXXXXXXXXXXXXXXoooo....",
"XXXXXXXXXXXXXXXXXXXXXXXXoooo........XXXXXXXXXXXXXXXXXXXXoooo....",
"XXXXXXXXXXXXXXXXXXXXXXXXoooo........XXXXXXXXXXXXXXXXXXXXoooo....",
"XXXXXXXXXXXXXXXXXXXXXXXXoooo........XXXXXXXXXXXXXXXXXXXXoooo....",
"XXXXXXXXXXXXXXXXXXXXXXXXoooo........XXXXXXXXXXXXXXXXXXXXoooo....",
"XXXXXXXXXXXXXXXXXXXXXXXXoooo........XXXXXXXXXXXXXXXXXXXXoooo....",
"XXXXXXXXXXXXXXXXXXXXXXXXoooo........XXXXXXXXXXXXXXXXXXXXoooo....",
"XXXXXXXXXXXXXXXXXXXXXXXXoooo........XXXXXXXXXXXXXXXXXXXXoooo....",
"XXXXXXXXXXXXXXXXXXXXXXXXoooo........XXXXXXXXXXXXXXXXXXXXoooo....",
"XXXXXXXXXXXXXXXXXXXXoooooooo........XXXXXXXXXXXXXXXXoooooooo....",
"XXXXXXXXXXXXXXXXXXXXoooooooo........XXXXXXXXXXXXXXXXoooooooo....",
"XXXXXXXXXXXXXXXXXXXXoooooooo........XXXXXXXXXXXXXXXXoooooooo....",
"XXXXXXXXXXXXXXXXXXXXoooooooo........XXXXXXXXXXXXXXXXoooooooo....",
"    oooooooooooooooooooo    ........    oooooooooooooooo    ....",
"    oooooooooooooooooooo    ........    oooooooooooooooo    ....",
"    oooooooooooooooooooo    ........    oooooooooooooooo    ....",
"    oooooooooooooooooooo    ........    oooooooooooooooo    ....",
"....                    ................                ........",
"....                    ................                ........",
"....                    ................                ........",
"....                    ................                ........",
"................................................................",
"................................................................",
"................................................................",
"................................................................",
"........................................XXXXXXXX................",
"........................................XXXXXXXX................",
"........................................XXXXXXXX................",
"........................................XXXXXXXX................",
"............XXXXXXXXXXXX................XXXXXXXX................",
"............XXXXXXXXXXXX................XXXXXXXX................",
"............XXXXXXXXXXXX................XXXXXXXX................",
"............XXXXXXXXXXXX................XXXXXXXX................",
"........XXXXXXXXXXXXXXXX........................................",
"........XXXXXXXXXXXXXXXX........................................",
"........XXXXXXXXXXXXXXXX........................................",
"........XXXXXXXXXXXXXXXX........................................",
"........XXXXXXXXXXXXXXXX........................................",
"........XXXXXXXXXXXXXXXX........................................",
"........XXXXXXXXXXXXXXXX........................................",
"........XXXXXXXXXXXXXXXX........................................",
"............XXXXXXXX................XXXX........XXXXXXXX........",
"............XXXXXXXX................XXXX........XXXXXXXX........",
"............XXXXXXXX................XXXX........XXXXXXXX........",
"............XXXXXXXX................XXXX........XXXXXXXX........",
"................................................XXXXXXXX........",
"................................................XXXXXXXX........",
"................................................XXXXXXXX........",
"................................................XXXXXXXX........",
"................................................................",
"................................................................",
"................................................................",
"................................................................",
"................................................................",
"................................................................",
"................................................................",
"................................................................"
};
