/* XPM */
static char *bigger[] = {
/* columns rows colors chars-per-pixel */
"64 64 2 1 ",
"  c #4C3941",
". c #514047",
/* pixels */
"................        ............        ....................",
"................        ............        ....................",
"................        ............        ....................",
"................        ............        ....................",
"....................................        ....................",
"....................................        ....................",
"....................................        ....................",
"....................................        ....................",
"................................................................",
"................................................................",
"................................................................",
"................................................................",
"................................................................",
"................................................................",
"................................................................",
"................................................................",
"    ................................    ........................",
"    ................................    ........................",
"    ................................    ........................",
"    ................................    ........................",
"    ............................................................",
"    ............................................................",
"    ............................................................",
"    ............................................................",
"................................................................",
"................................................................",
"................................................................",
"................................................................",
"....................................................        ....",
"....................................................        ....",
"....................................................        ....",
"....................................................        ....",
"....        ........................................        ....",
"....        ........................................        ....",
"....        ........................................        ....",
"....        ........................................        ....",
"....        ....        ........................................",
"....        ....        ........................................",
"....        ....        ........................................",
"....        ....        ........................................",
"................        ........................................",
"................        ........................................",
"................        ........................................",
"................        ........................................",
"................................................................",
"................................................................",
"................................................................",
"................................................................",
"........        ................................................",
"........        ................................................",
"........        ................................................",
"........        ................................................",
"........        ........................    ........        ....",
"........        ........................    ........        ....",
"........        ........................    ........        ....",
"........        ........................    ........        ....",
"....................................................        ....",
"....................................................        ....",
"....................................................        ....",
"....................................................        ....",
"................................................................",
"................................................................",
"................................................................",
"................................................................"
};
