/* XPM */
static char *bigger[] = {
/* columns rows colors chars-per-pixel */
"64 64 4 1 ",
"  c #59413E",
". c #514047",
"X c #77514C",
"o c #8D5D57",
/* pixels */
"....XXXXXXXXXXXX................................................",
"....XXXXXXXXXXXX................................................",
"....XXXXXXXXXXXX................................................",
"....XXXXXXXXXXXX................................................",
"XXXXXXXXXXXXXXXXXXXXXXXX........................................",
"XXXXXXXXXXXXXXXXXXXXXXXX........................................",
"XXXXXXXXXXXXXXXXXXXXXXXX........................................",
"XXXXXXXXXXXXXXXXXXXXXXXX........................................",
"XXXXXXXXXXXXXXXXXXXXXXXXoooo........XXXXXXXX....................",
"XXXXXXXXXXXXXXXXXXXXXXXXoooo........XXXXXXXX....................",
"XXXXXXXXXXXXXXXXXXXXXXXXoooo........XXXXXXXX....................",
"XXXXXXXXXXXXXXXXXXXXXXXXoooo........XXXXXXXX....................",
"XXXXXXXXXXXXXXXXXXXXXXXXoooo........XXXXXXXX....................",
"XXXXXXXXXXXXXXXXXXXXXXXXoooo........XXXXXXXX....................",
"XXXXXXXXXXXXXXXXXXXXXXXXoooo........XXXXXXXX....................",
"XXXXXXXXXXXXXXXXXXXXXXXXoooo........XXXXXXXX....................",
"XXXXXXXXXXXXXXXXXXXXoooooooo........................XXXX........",
"XXXXXXXXXXXXXXXXXXXXoooooooo........................XXXX........",
"XXXXXXXXXXXXXXXXXXXXoooooooo........................XXXX........",
"XXXXXXXXXXXXXXXXXXXXoooooooo........................XXXX........",
"    oooooooooooooooooooo    ........................XXXX........",
"    oooooooooooooooooooo    ........................XXXX........",
"    oooooooooooooooooooo    ........................XXXX........",
"    oooooooooooooooooooo    ........................XXXX........",
"....                    ................XXXX....................",
"....                    ................XXXX....................",
"....                    ................XXXX....................",
"....                    ................XXXX....................",
"................................................................",
"................................................................",
"................................................................",
"................................................................",
"............XXXXXXXX............................................",
"............XXXXXXXX............................................",
"............XXXXXXXX............................................",
"............XXXXXXXX............................................",
"....XXXXXXXXXXXXXXXXoooo........................................",
"....XXXXXXXXXXXXXXXXoooo........................................",
"....XXXXXXXXXXXXXXXXoooo........................................",
"....XXXXXXXXXXXXXXXXoooo........................................",
"XXXXXXXXXXXXXXXXXXXXoooo....................XXXXXXXX............",
"XXXXXXXXXXXXXXXXXXXXoooo....................XXXXXXXX............",
"XXXXXXXXXXXXXXXXXXXXoooo....................XXXXXXXX............",
"XXXXXXXXXXXXXXXXXXXXoooo....................XXXXXXXX............",
"XXXXXXXXXXXXXXXXXXXXoooo....................XXXXXXXX............",
"XXXXXXXXXXXXXXXXXXXXoooo....................XXXXXXXX............",
"XXXXXXXXXXXXXXXXXXXXoooo....................XXXXXXXX............",
"XXXXXXXXXXXXXXXXXXXXoooo....................XXXXXXXX............",
"XXXXXXXXXXXXXXXXoooooooo....................XXXXXXXX............",
"XXXXXXXXXXXXXXXXoooooooo....................XXXXXXXX............",
"XXXXXXXXXXXXXXXXoooooooo....................XXXXXXXX............",
"XXXXXXXXXXXXXXXXoooooooo....................XXXXXXXX............",
"    oooooooooooooooo    ........................................",
"    oooooooooooooooo    ........................................",
"    oooooooooooooooo    ........................................",
"    oooooooooooooooo    ........................................",
"....                ............................................",
"....                ............................................",
"....                ............................................",
"....                ............................................",
"................................................................",
"................................................................",
"................................................................",
"................................................................",
};
