/* XPM */
static char *result[] = {
/* columns rows colors chars-per-pixel */
"16 16 4 1 ",
"  c #59413E",
". c #514047",
"X c #77514C",
"o c #8D5D57",
/* pixels */
".XXX............",
"XXXXXX..........",
"XXXXXXo..XX.....",
"XXXXXXo..XX.....",
"XXXXXoo......X..",
" ooooo ......X..",
".     ....X.....",
"................",
"...XX...........",
".XXXXo..........",
"XXXXXo.....XX...",
"XXXXXo.....XX...",
"XXXXoo.....XX...",
" oooo ..........",
".    ...........",
"................"
};
