/* XPM */
static char *result[] = {
/* columns rows colors chars-per-pixel */
"16 16 4 1 ",
"  c #59413E",
". c #514047",
"X c #77514C",
"o c #8D5D57",
/* pixels */
"................",
"................",
"............XX..",
"...XX....X..XX..",
"..XXXX..........",
"..XXXX..........",
"...XXX....XX....",
"..........XX....",
"................",
".XXX........XX..",
"XXXXXX....XXXXo.",
"XXXXXXo..XXXXXo.",
"XXXXXXo..XXXXXo.",
"XXXXXoo..XXXXoo.",
" ooooo .. oooo .",
".     ....    .."
};
