/* XPM */
static char *result[] = {
/* columns rows colors chars-per-pixel */
"16 16 4 1 ",
"  c #59413E",
". c #514047",
"X c #77514C",
"o c #8D5D57",
/* pixels */
"............XXX.",
"..........XXXXXX",
".....XX..XXXXXXo",
".....XX..XXXXXXo",
"..X......XXXXXoo",
"..X...... ooooo ",
".....X....     .",
"................",
"...........XX...",
"...........XXXXo",
"...XX.....XXXXXo",
"...XX.....XXXXXo",
"...XX.....XXXXoo",
".......... oooo ",
"...........    .",
"................"
};
